<?xml version="1.0" encoding="UTF-8"?>
<!DOCTYPE svg PUBLIC "-//W3C//DTD SVG 1.1//EN" "http://www.w3.org/Graphics/SVG/1.1/DTD/svg11.dtd">
<!-- Creator: CorelDRAW -->
<svg xmlns="http://www.w3.org/2000/svg" xml:space="preserve" width="297mm" height="210mm" style="shape-rendering:geometricPrecision; text-rendering:geometricPrecision; image-rendering:optimizeQuality; fill-rule:evenodd; clip-rule:evenodd"
viewBox="0 0 297 210"
 xmlns:xlink="http://www.w3.org/1999/xlink">
 <defs>
  <style type="text/css">
   <![CDATA[
    .fil5 {fill:#1763AF}
    .fil3 {fill:#3485C6}
    .fil4 {fill:#4AA4DB}
    .fil7 {fill:#7A2F2D}
    .fil0 {fill:#C72026}
    .fil6 {fill:#CB6F2D}
    .fil2 {fill:#EB454B}
    .fil1 {fill:#ED1D24}
    .fil8 {fill:#FADE1E}
    .fil9 {fill:black;fill-rule:nonzero}
    .fil10 {fill:red;fill-rule:nonzero}
   ]]>
  </style>
      <mask id="id0">
  <linearGradient id="id1" gradientUnits="userSpaceOnUse" x1="46.7874" y1="125.271" x2="54.8644" y2="133.913">
   <stop offset="0" style="stop-opacity:1; stop-color:white"/>
   <stop offset="1" style="stop-opacity:0.4; stop-color:white"/>
  </linearGradient>
       <rect style="fill:url(#id1)" x="22.7713" y="105.021" width="56.1091" height="49.1425"/>
      </mask>
 </defs>
 <g id="Layer_x0020_1">
  <metadata id="CorelCorpID_0Corel-Layer"/>
  <g id="_263712488">
   <g>
    <g>
     <path id="_262889104" class="fil0" d="M96.7875 67.484c7.1329,-6.2968 13.0981,-6.2466 17.9164,-2.541 0.3946,0.3034 1.701,1.4489 2.0452,1.7662 6.7917,6.2579 3.9727,15.0534 -1.9311,21.8836 -5.8874,6.8114 -15.4961,11.9405 -22.7345,13.7886 5.553,-1.8027 12.2617,-5.648 16.5361,-10.5932 4.7578,-5.5044 7.0296,-12.5925 1.5562,-17.6357 -0.2774,-0.2555 -1.3303,-1.1787 -1.6481,-1.4232 -3.8831,-2.9864 -8.6902,-3.0267 -14.4386,2.0477 -5.6467,5.3497 -9.4454,14.7045 -10.3532,21.6646 0.5681,-8.7598 5.4658,-21.7708 13.0516,-28.9576z"/>
     <path id="_262888792" class="fil1" d="M92.8897 78.7224c4.8729,-4.3017 8.6625,-3.6594 12.2397,-1.5584 0.2921,0.1716 1.0736,0.9011 1.3086,1.1178 4.4252,4.3467 2.802,10.1957 -1.2306,14.8612 -5.152,5.9607 -14.4775,10.0368 -19.2248,9.9288 4.0618,-0.0972 11.5575,-3.4559 15.7501,-8.3065 3.3738,-3.9035 5.0181,-8.5465 1.0296,-12.4338 -0.1967,-0.1812 -0.8506,-0.7917 -1.0948,-0.9352 -2.9929,-1.7577 -6.1635,-2.2064 -10.2405,1.3925 -5.1099,4.8411 -8.0859,14.2321 -7.3917,18.8807 -1.2836,-5.574 2.6317,-17.0518 8.8544,-22.9471z"/>
     <path id="_262888864" class="fil2" d="M97.885 86.3535c3.5056,2.0587 2.5772,7.2021 0.2282,10.0664 -3.2813,4.0014 -9.507,6.6021 -12.6004,6.4765 2.634,-0.0298 7.5783,-2.2299 10.3343,-5.4185 2.2004,-2.5457 3.2728,-5.5738 0.6715,-8.1091 -0.1283,-0.1182 -0.5547,-0.5163 -0.7141,-0.6099 -1.9518,-1.1463 -4.0196,-1.439 -6.6786,0.9082 -3.2973,3.1238 -5.2324,9.1528 -4.8344,12.2166 -1.1045,-5.5174 5.0709,-20.5349 13.5935,-15.5302z"/>
    </g>
    <g>
     <path id="_262888696" class="fil0" d="M96.7973 142.343c7.133,6.2968 13.0982,6.2467 17.9165,2.541 0.3945,-0.3034 1.7009,-1.4489 2.0451,-1.7661 6.7918,-6.2579 3.9728,-15.0534 -1.931,-21.8837 -5.8874,-6.8114 -15.4961,-11.9404 -22.7346,-13.7886 5.5531,1.8027 12.2617,5.648 16.5361,10.5932 4.7578,5.5045 7.0296,12.5925 1.5562,17.6357 -0.2774,0.2556 -1.3302,1.1787 -1.6481,1.4233 -3.883,2.9863 -8.6901,3.0267 -14.4385,-2.0477 -5.6468,-5.3497 -9.4454,-14.7045 -10.3532,-21.6646 0.568,8.7598 5.4657,21.7708 13.0515,28.9575z"/>
     <path id="_262888600" class="fil1" d="M92.8996 131.105c4.8729,4.3016 8.6625,3.6594 12.2397,1.5583 0.2921,-0.1715 1.0735,-0.9011 1.3087,-1.1177 4.4251,-4.3468 2.8018,-10.1957 -1.2307,-14.8612 -5.1524,-5.961 -14.4783,-10.0371 -19.2254,-9.9289 4.0617,0.0968 11.5578,3.4558 15.7506,8.3066 3.3739,3.9034 5.0182,8.5465 1.0297,12.4337 -0.1968,0.1813 -0.8507,0.7918 -1.095,0.9352 -2.9928,1.7577 -6.1634,2.2066 -10.2404,-1.3925 -5.1096,-4.8409 -8.0856,-14.2313 -7.3917,-18.88 -1.2833,5.5743 2.6319,17.0512 8.8545,22.9465z"/>
     <path id="_262887784" class="fil2" d="M97.8949 123.474c3.5056,-2.0586 2.5772,-7.2021 0.2282,-10.0664 -3.2815,-4.0015 -9.5074,-6.6023 -12.6007,-6.4764 2.6339,0.0296 7.5785,2.2298 10.3346,5.4184 2.2003,2.5457 3.2727,5.5738 0.6715,8.109 -0.1284,0.1183 -0.5547,0.5165 -0.7141,0.61 -1.9518,1.1464 -4.0197,1.4391 -6.6786,-0.9082 -3.2974,-3.1238 -5.2325,-9.1528 -4.8344,-12.2166 -1.1045,5.5174 5.0708,20.535 13.5935,15.5302z"/>
    </g>
    <g>
     <path id="_262887520" class="fil3" d="M45.5677 75.798c-7.2309,8.6965 -1.2923,15.9383 5.0429,20.9563 9.7717,7.74 26.5553,9.14 31.795,6.2432 -4.4146,2.3984 -18.1502,1.214 -26.4699,-5.0324 -5.8714,-4.4083 -9.5581,-10.3617 -5.1765,-16.9543 0.2194,-0.3108 0.9457,-1.3544 1.2425,-1.6268 3.6369,-3.3374 7.9152,-4.9108 14.6736,-1.136 9.3892,5.6857 16.8797,18.6052 15.9356,24.631 2.2942,-10.7022 -22.771,-44.2459 -37.0432,-27.081z"/>
     <path id="_262888168" class="fil4" d="M58.9146 85.0515c-4.4146,5.0193 -1.2045,10.5801 2.9741,13.7649 6.4448,4.9119 17.3694,5.6186 20.7409,3.6728 -2.8411,1.6118 -11.7821,1.0084 -17.2651,-2.9504 -3.8697,-2.7941 -6.3382,-6.619 -3.5702,-10.9572 0.1388,-0.2046 0.5983,-0.8917 0.7879,-1.0724 2.3234,-2.2134 5.0851,-3.2879 9.5237,-0.9163 6.1718,3.5818 11.1974,11.8887 10.6565,15.8166 1.3618,-6.9839 -14.7841,-27.6631 -23.8478,-17.358z"/>
     <path id="_262888120" class="fil5" d="M53.2374 59.0621c-8.8495,-5.0715 -19.7692,-3.8712 -24.9479,2.8726 -0.424,0.5522 -1.779,2.5722 -2.1306,3.1254 -6.939,10.9135 -0.0857,21.8839 10.2251,29.0909 10.2821,7.187 24.9753,10.7705 35.341,10.7277 -8.0864,-0.4908 -18.437,-3.3523 -25.9022,-8.5702 -8.3093,-5.808 -13.8322,-14.6488 -8.2402,-23.4438 0.2834,-0.4457 1.3754,-2.0736 1.717,-2.5187 4.1735,-5.4347 10.6153,-7.188 20.105,-2.315 9.4493,5.2834 15.0044,12.4465 19.8517,21.0287 -5.0368,-11.3515 -13.4468,-23.5095 -26.0189,-29.9976z"/>
    </g>
    <g>
     <path id="_262903648" class="fil6" d="M45.0919 134.202c-7.2309,-8.6965 -1.2924,-15.9383 5.0429,-20.9563 9.7717,-7.74 26.5552,-9.14 31.795,-6.2432 -4.4145,-2.3984 -18.1502,-1.214 -26.4699,5.0324 -5.8714,4.4084 -9.5582,10.3617 -5.1765,16.9544 0.2193,0.3107 0.9458,1.3543 1.2425,1.6267 3.6368,3.3375 7.9152,4.9108 14.6736,1.136 9.3891,-5.6857 16.8797,-18.6052 15.9356,-24.631 2.2942,10.7022 -22.771,44.2459 -37.0432,27.081z"/>
     <path id="_262903336" class="fil7" d="M58.4388 124.949c-4.4146,-5.0193 -1.2045,-10.5802 2.9741,-13.765 6.4447,-4.9119 17.3694,-5.6186 20.7409,-3.6727 -2.8411,-1.6119 -11.7821,-1.0085 -17.2651,2.9503 -3.8697,2.7941 -6.3382,6.619 -3.5702,10.9572 0.1388,0.2046 0.5983,0.8917 0.7879,1.0724 2.3234,2.2134 5.0851,3.2879 9.5237,0.9163 6.1718,-3.5818 11.1973,-11.8886 10.6565,-15.8166 1.3618,6.9839 -14.7841,27.6631 -23.8478,17.3581z"/>
     <path id="_262903000" class="fil8" style="mask:url(#id0)" d="M52.7616 150.938c-8.8495,5.0715 -19.7692,3.8712 -24.9479,-2.8726 -0.424,-0.5522 -1.779,-2.5722 -2.1307,-3.1254 -6.9389,-10.9135 -0.0856,-21.8839 10.2251,-29.0909 10.2822,-7.187 24.9753,-10.7705 35.3411,-10.7277 -8.0864,0.4908 -18.4371,3.3523 -25.9022,8.5702 -8.3093,5.808 -13.8322,14.6488 -8.2403,23.4438 0.2835,0.4457 1.3755,2.0737 1.7171,2.5187 4.1734,5.4347 10.6153,7.188 20.105,2.315 9.4492,-5.2833 15.0044,-12.4465 19.8517,-21.0287 -5.0369,11.3515 -13.4468,23.5095 -26.0189,29.9976z"/>
    </g>
   </g>
   <polygon id="_262903432" class="fil9" points="231.79,89.2267 231.79,80.9016 229.355,80.9016 229.355,79.8377 235.247,79.8377 235.247,80.9016 232.825,80.9016 232.825,89.2267 "/>
   <path id="_2629034321" class="fil9" d="M236.934 89.2267l0 -9.9407 0.899 0 0 4.978c0.2308,-0.3765 0.5096,-0.6567 0.8348,-0.8406 0.325,-0.1839 0.7023,-0.2758 1.1297,-0.2758 0.6341,0 1.1318,0.1839 1.487,0.5516 0.3571,0.3678 0.5357,0.88 0.5357,1.5324l0 3.9951 -0.9411 0 0 -3.4566c0,-0.5932 -0.1144,-1.0354 -0.3432,-1.3222 -0.2307,-0.289 -0.5839,-0.4334 -1.0615,-0.4334 -0.2749,0 -0.5258,0.0547 -0.7504,0.1641 -0.2248,0.1073 -0.4134,0.2627 -0.5619,0.4641 -0.1124,0.1533 -0.1946,0.3284 -0.2429,0.5254 -0.0501,0.197 -0.0742,0.5385 -0.0742,1.0267l0 3.0319 -0.911 0z"/>
   <path id="_26290343212" class="fil9" d="M248.096 85.63c-0.0322,-0.5188 -0.1887,-0.9172 -0.4737,-1.1974 -0.2828,-0.2802 -0.6721,-0.4203 -1.1658,-0.4203 -0.4475,0 -0.8207,0.1466 -1.1177,0.44 -0.299,0.2933 -0.4716,0.6852 -0.5177,1.1777l3.2749 0zm0.9872 0.8144l-4.2621 0 0 0.0897c0,0.6283 0.1646,1.1361 0.4937,1.5214 0.329,0.3875 0.7585,0.5801 1.2882,0.5801 0.3592,0 0.6862,-0.105 0.9753,-0.3174 0.2909,-0.2123 0.5477,-0.5319 0.7705,-0.9588l0.6983 0.5122c-0.2689,0.532 -0.6141,0.9304 -1.0334,1.1997 -0.4194,0.2692 -0.905,0.405 -1.4589,0.405 -0.8187,0 -1.4809,-0.2956 -1.9866,-0.8844 -0.5056,-0.5911 -0.7585,-1.3638 -0.7585,-2.3227 0,-0.9172 0.2509,-1.6703 0.7526,-2.2569 0.5016,-0.5845 1.1457,-0.8779 1.9344,-0.8779 0.7945,0 1.4247,0.2781 1.8902,0.8341 0.4636,0.556 0.6963,1.3156 0.6963,2.2766l0 0.1993z"/>
   <path id="_262903432123" class="fil9" d="M259.486 80.5951c-0.4696,0 -0.8428,0.1401 -1.1177,0.4203 -0.2749,0.2802 -0.4113,0.6611 -0.4113,1.1449 0,0.4794 0.1323,0.8515 0.3993,1.1208 0.2668,0.2693 0.636,0.405 1.1076,0.405 0.4856,0 0.8649,-0.1335 1.1358,-0.4006 0.2709,-0.2671 0.4053,-0.6436 0.4053,-1.1252 0,-0.4838 -0.1344,-0.8647 -0.4053,-1.1449 -0.2709,-0.2802 -0.6421,-0.4203 -1.1137,-0.4203zm-0.01 7.9771c0.5678,0 1.0093,-0.1664 1.3284,-0.5013 0.317,-0.3328 0.4755,-0.7969 0.4755,-1.3901 0,-0.6042 -0.1605,-1.0749 -0.4796,-1.4186 -0.3191,-0.3415 -0.7605,-0.5122 -1.3243,-0.5122 -0.5619,0 -1.0033,0.1729 -1.3244,0.5166 -0.3211,0.3437 -0.4816,0.8144 -0.4816,1.4142 0,0.5932 0.1585,1.0573 0.4755,1.3901 0.3191,0.3349 0.7606,0.5013 1.3305,0.5013zm-1.1197 -4.3104c-0.4857,-0.1664 -0.8489,-0.429 -1.0917,-0.7902 -0.2428,-0.3612 -0.3652,-0.821 -0.3652,-1.377 0,-0.6874 0.2388,-1.2522 0.7184,-1.6922 0.4776,-0.44 1.1016,-0.6611 1.8682,-0.6611 0.7886,0 1.4147,0.2233 1.8802,0.6677 0.4635,0.4444 0.6964,1.0354 0.6964,1.7754 0,0.51 -0.1265,0.9457 -0.3793,1.309 -0.2529,0.3634 -0.6101,0.6196 -1.0716,0.7684 0.5599,0.1773 0.9933,0.4794 1.3044,0.9107 0.309,0.4334 0.4635,0.9522 0.4635,1.5586 0,0.856 -0.2549,1.5258 -0.7666,2.014 -0.5116,0.4882 -1.22,0.7312 -2.127,0.7312 -0.893,0 -1.5993,-0.2452 -2.119,-0.7334 -0.5197,-0.4903 -0.7786,-1.1515 -0.7786,-1.9855 0,-0.6239 0.1545,-1.1537 0.4615,-1.5893 0.307,-0.4378 0.7425,-0.7377 1.3064,-0.9063z"/>
   <polygon id="_2629034321234" class="fil9" points="264.746,84.1852 263.759,84.1852 263.759,83.3577 264.746,83.3577 264.746,80.9913 265.688,80.9913 265.688,83.3577 266.675,83.3577 266.675,84.1852 265.688,84.1852 265.688,89.2267 264.746,89.2267 "/>
   <path id="_26290343212345" class="fil9" d="M268.361 89.2267l0 -9.9407 0.899 0 0 4.978c0.2308,-0.3765 0.5096,-0.6567 0.8348,-0.8406 0.325,-0.1839 0.7023,-0.2758 1.1297,-0.2758 0.6341,0 1.1318,0.1839 1.487,0.5516 0.3571,0.3678 0.5357,0.88 0.5357,1.5324l0 3.9951 -0.9411 0 0 -3.4566c0,-0.5932 -0.1144,-1.0354 -0.3432,-1.3222 -0.2307,-0.289 -0.5839,-0.4334 -1.0615,-0.4334 -0.2749,0 -0.5258,0.0547 -0.7504,0.1641 -0.2248,0.1073 -0.4134,0.2627 -0.5619,0.4641 -0.1124,0.1533 -0.1946,0.3284 -0.2429,0.5254 -0.0501,0.197 -0.0742,0.5385 -0.0742,1.0267l0 3.0319 -0.911 0z"/>
   <path id="_262903432123456" class="fil9" d="M216.186 103.887l0 0c0.0078,1.0045 0.1795,1.941 0.5228,2.8093 0.3395,0.8726 0.8116,1.6388 1.4164,2.2986 0.6048,0.6598 1.3071,1.1791 2.0992,1.5494 0.7959,0.3746 1.6504,0.5619 2.5635,0.5704l0 0c0.9247,-0.0085 1.787,-0.1958 2.5909,-0.5704 0.7998,-0.3703 1.506,-0.8896 2.1108,-1.5494 0.6087,-0.6598 1.0847,-1.426 1.4243,-2.2986 0.3432,-0.8683 0.5189,-1.8048 0.5227,-2.8093l0 -10.0371 0 0c-0.0038,-0.1703 -0.0585,-0.315 -0.1677,-0.43 -0.1093,-0.1191 -0.2497,-0.1787 -0.4176,-0.183l0 0c-0.156,0.0043 -0.2886,0.0639 -0.394,0.183 -0.1054,0.115 -0.1639,0.2597 -0.1678,0.43l0 0 0 10.0371 0 0c-0.0039,0.83 -0.1483,1.6005 -0.4292,2.3198 -0.2849,0.7194 -0.6789,1.3494 -1.1783,1.8942 -0.5034,0.5449 -1.0848,0.9705 -1.752,1.2813 -0.6633,0.3107 -1.3773,0.4682 -2.1421,0.481l0 0c-0.7531,-0.0128 -1.4593,-0.1703 -2.1148,-0.481 -0.6594,-0.3108 -1.2369,-0.7364 -1.7363,-1.2813 -0.4995,-0.5448 -0.8896,-1.1748 -1.1745,-1.8942 -0.2809,-0.7193 -0.4253,-1.4898 -0.4292,-2.3198l0 -10.0371 0 0c-0.0039,-0.1703 -0.0624,-0.315 -0.1717,-0.43 -0.1093,-0.1191 -0.2458,-0.1787 -0.4136,-0.183l0 0c-0.156,0.0043 -0.2887,0.0639 -0.3941,0.183 -0.1092,0.115 -0.1639,0.2597 -0.1677,0.43l0 10.0371z"/>
   <path id="_2629034321234567" class="fil9" d="M248.611 103.07l0 5.2612c-0.6126,0.4895 -1.2876,0.8641 -2.0251,1.1322 -0.7374,0.2639 -1.506,0.3959 -2.306,0.4002 -1.03,-0.0086 -1.9899,-0.2129 -2.8795,-0.613 -0.8896,-0.4044 -1.67,-0.962 -2.3451,-1.6771 -0.6711,-0.7194 -1.1978,-1.5494 -1.5724,-2.4944 -0.3785,-0.945 -0.5696,-1.9623 -0.5775,-3.0562 0.0079,-1.0812 0.199,-2.09 0.5775,-3.0265 0.3746,-0.9407 0.9013,-1.7665 1.5724,-2.4773 0.6751,-0.7151 1.4555,-1.2728 2.3451,-1.6729 0.8896,-0.4001 1.8495,-0.6087 2.8795,-0.6129 0.8858,0.0042 1.7169,0.1617 2.4933,0.4639 0.7804,0.3065 1.4711,0.7322 2.0719,1.2728 0.1444,0.1021 0.2926,0.1404 0.4448,0.1191 0.1522,-0.017 0.2771,-0.0936 0.3746,-0.2213 0.0702,-0.0894 0.1093,-0.1873 0.1209,-0.298 0.0157,-0.1149 0.004,-0.2213 -0.0311,-0.3235 -0.0351,-0.1021 -0.0898,-0.1873 -0.16,-0.2469 -0.7374,-0.6342 -1.553,-1.1237 -2.4465,-1.477 -0.8896,-0.3533 -1.8455,-0.5363 -2.8679,-0.5406 -0.9442,0.0043 -1.8417,0.1575 -2.6922,0.464 -0.8507,0.3022 -1.631,0.7321 -2.3412,1.2855 -0.7061,0.5533 -1.3227,1.2046 -1.8456,1.958 -0.5189,0.7534 -0.9207,1.5792 -1.2095,2.4816 -0.2849,0.9024 -0.4292,1.8517 -0.4331,2.852 0.0039,1.013 0.1482,1.975 0.4331,2.886 0.2888,0.9066 0.6906,1.7367 1.2095,2.4901 0.5229,0.7534 1.1395,1.4089 1.8456,1.9623 0.7102,0.5491 1.4905,0.979 2.3412,1.2855 0.8505,0.3022 1.748,0.4597 2.6922,0.4682 1.0106,-0.0043 1.9627,-0.1745 2.8562,-0.5151 0.8936,-0.3362 1.7051,-0.8215 2.4347,-1.4515 0.0586,-0.051 0.1054,-0.1191 0.1406,-0.2 0.0351,-0.0809 0.0585,-0.1703 0.0702,-0.2597l0 -0.1021 0 -6.1296c-0.004,-0.1702 -0.0546,-0.3149 -0.1522,-0.4341 -0.0975,-0.1192 -0.2185,-0.1873 -0.3629,-0.2044l-0.0702 0 -5.0568 0c-0.1678,0.0043 -0.3044,0.0639 -0.4136,0.1831 -0.1093,0.1192 -0.1678,0.2724 -0.1717,0.4554 0.0039,0.1831 0.0624,0.3278 0.1717,0.4385 0.1092,0.1149 0.2458,0.1702 0.4136,0.1745l4.4715 0z"/>
   <path id="_26290343212345678" class="fil9" d="M269.447 110.502c0.0038,0.1703 0.0546,0.315 0.1599,0.43 0.1015,0.1192 0.2342,0.1787 0.4019,0.183 0.1561,-0.0043 0.2888,-0.0638 0.3941,-0.183 0.1092,-0.115 0.1639,-0.2597 0.1678,-0.43l0 -16.5497c0,-0.0511 -0.0117,-0.1064 -0.0273,-0.166 -0.0195,-0.0596 -0.0429,-0.1149 -0.0664,-0.166 -0.0233,-0.0383 -0.0468,-0.0724 -0.0741,-0.1022 -0.0234,-0.0297 -0.0547,-0.0638 -0.0898,-0.1021 -0.0858,-0.0596 -0.1833,-0.0937 -0.2848,-0.1022 -0.1014,-0.0085 -0.199,0.0085 -0.2887,0.0511 -0.0898,0.0426 -0.1639,0.1107 -0.2224,0.2043l-5.806 8.8112 -5.8293 -8.8112c-0.0976,-0.1404 -0.2225,-0.2256 -0.3707,-0.2511 -0.1483,-0.0256 -0.2927,0.0085 -0.4253,0.0979 -0.0118,0.0128 -0.0234,0.0213 -0.0312,0.0255 -0.0117,0.0043 -0.0157,0.0128 -0.0157,0.0256 -0.0702,0.051 -0.1287,0.1192 -0.1677,0.2043 -0.0429,0.0851 -0.0664,0.1788 -0.0664,0.2809l0 16.5497c0.004,0.1703 0.0624,0.315 0.1717,0.43 0.1093,0.1192 0.2459,0.1787 0.4136,0.183 0.1561,-0.0043 0.2887,-0.0638 0.3941,-0.183 0.1092,-0.115 0.1639,-0.2597 0.1678,-0.43l0 -14.6853 5.2441 7.9173c0.0585,0.1022 0.1287,0.1745 0.2107,0.2171 0.0819,0.0426 0.1756,0.0639 0.2809,0.0639l0.0469 0c0.0858,0 0.1677,-0.0213 0.2536,-0.0639 0.0819,-0.0426 0.156,-0.1149 0.2146,-0.2171l5.2441 -7.9428 0 14.7108z"/>
   <path id="_262903432123456789" class="fil9" d="M117.79 108.54l0 0c0.3395,0.2938 0.7297,0.5917 1.1627,0.8939 0.4371,0.298 0.9131,0.5704 1.4282,0.8216 0.515,0.2511 1.0613,0.4554 1.6387,0.6129 0.5814,0.1533 1.1823,0.2341 1.8105,0.2469l0 0c0.8233,-0.0043 1.5919,-0.132 2.3099,-0.3788 0.714,-0.2427 1.35,-0.5875 1.9041,-1.0259l0 0c0.3706,-0.2894 0.6906,-0.6214 0.9676,-0.9918 0.2771,-0.3746 0.4917,-0.7747 0.6478,-1.2089 0.1521,-0.4341 0.2301,-0.8896 0.2341,-1.3706l0 0c-0.004,-0.4767 -0.078,-0.9194 -0.2263,-1.3366 -0.1522,-0.4129 -0.359,-0.7917 -0.6282,-1.1322 -0.2693,-0.3406 -0.5853,-0.6385 -0.9482,-0.8939l0 0c-0.5423,-0.3959 -1.1667,-0.7236 -1.8728,-0.9875 -0.7063,-0.2682 -1.4711,-0.481 -2.2943,-0.6471l-0.0469 0 0 0c-0.7414,-0.1489 -1.4085,-0.3362 -2.0016,-0.5618 -0.5932,-0.2214 -1.0965,-0.4853 -1.5101,-0.7875l0 0c-0.4097,-0.3022 -0.7101,-0.63 -0.909,-0.979 -0.1952,-0.3491 -0.3005,-0.7492 -0.3083,-1.1876l0 0c0.0038,-0.464 0.1131,-0.9024 0.3355,-1.3196 0.2225,-0.4214 0.5385,-0.796 0.9521,-1.1322l0 0c0.4136,-0.3235 0.9092,-0.5789 1.4827,-0.7747 0.5696,-0.1916 1.1939,-0.2895 1.865,-0.2937l0 0c0.601,0.0042 1.159,0.1021 1.6817,0.2852 0.519,0.183 1.0146,0.4171 1.4749,0.7023 0.4644,0.2852 0.9131,0.5874 1.3384,0.8981l0 0c0.1249,0.0894 0.2536,0.115 0.3863,0.0852 0.1365,-0.0298 0.2419,-0.1064 0.3161,-0.2384l0 0c0.0818,-0.1447 0.1092,-0.2894 0.078,-0.4342 -0.0273,-0.1447 -0.0975,-0.2639 -0.2185,-0.3575l0 0c-0.32,-0.2299 -0.6633,-0.4683 -1.0301,-0.7066 -0.3668,-0.2427 -0.757,-0.464 -1.1745,-0.6683 -0.4136,-0.2043 -0.8584,-0.3703 -1.3344,-0.498 -0.4721,-0.1235 -0.9793,-0.1873 -1.5179,-0.1916l0 0c-0.7764,0.0043 -1.4982,0.1192 -2.1693,0.3448 -0.6751,0.2256 -1.2681,0.5448 -1.7871,0.9577l0 0c-0.3473,0.2725 -0.6438,0.5832 -0.9013,0.928 -0.2536,0.3448 -0.4526,0.7193 -0.5932,1.128 -0.1404,0.4044 -0.2106,0.83 -0.2146,1.2855l0 0c0.004,0.4427 0.0742,0.8513 0.2146,1.2344 0.1406,0.3831 0.3356,0.7321 0.5853,1.0471 0.2537,0.3108 0.5463,0.5874 0.8858,0.8258l0 0c0.5073,0.3703 1.0847,0.6726 1.7402,0.9152 0.6516,0.2426 1.3578,0.4427 2.1226,0.5917l0.0468 0 0 0c0.7999,0.166 1.5178,0.3703 2.1617,0.6129 0.6399,0.2426 1.1822,0.5193 1.631,0.8386l0 0c0.4447,0.3277 0.7803,0.6938 1.0027,1.0897 0.2224,0.4001 0.3317,0.8513 0.3317,1.3578l0 0c0,0.5023 -0.1209,0.979 -0.359,1.4345 -0.238,0.4512 -0.5853,0.8598 -1.0457,1.2174l0 0c-0.4487,0.3618 -0.9832,0.647 -1.5998,0.8556 -0.6164,0.2085 -1.2876,0.315 -2.0055,0.3192l0 0c-0.5345,0.0043 -1.0574,-0.0638 -1.5685,-0.1958 -0.5112,-0.1362 -0.9989,-0.315 -1.4671,-0.5406 -0.4644,-0.2256 -0.8974,-0.4725 -1.2954,-0.7449 -0.3941,-0.2724 -0.7453,-0.5406 -1.0536,-0.813l0 0c-0.1092,-0.1022 -0.2341,-0.149 -0.3707,-0.1362 -0.1365,0.0128 -0.2574,0.0851 -0.355,0.2128l0 0c-0.0819,0.1192 -0.117,0.2554 -0.1054,0.4044 0.0117,0.149 0.0702,0.2767 0.1756,0.3873z"/>
   <path id="_26290343212345678910" class="fil9" d="M135.348 110.502c0.004,0.1703 0.0546,0.3108 0.1522,0.4215 0.0976,0.1106 0.2185,0.1745 0.3629,0.1915l0.0468 0 0.0702 0 8.3578 0c0.1678,-0.0043 0.3004,-0.0638 0.4019,-0.183 0.1053,-0.115 0.1561,-0.2597 0.16,-0.43 -0.0039,-0.183 -0.0547,-0.332 -0.16,-0.4512 -0.1015,-0.1191 -0.2341,-0.183 -0.4019,-0.1872l-7.8427 0 0 -7.049 6.8594 0c0.1562,-0.0043 0.2888,-0.0639 0.3941,-0.183 0.1093,-0.115 0.1639,-0.2597 0.1679,-0.43 -0.004,-0.183 -0.0586,-0.3362 -0.1679,-0.4554 -0.1053,-0.1192 -0.2379,-0.1788 -0.3941,-0.183l-6.8594 0 0 -7.0745 7.8427 0c0.1678,-0.0043 0.3004,-0.0682 0.4019,-0.1873 0.1053,-0.1192 0.1561,-0.2682 0.16,-0.4512 -0.0039,-0.1703 -0.0547,-0.315 -0.16,-0.43 -0.1015,-0.1191 -0.2341,-0.1787 -0.4019,-0.183l-8.3811 0 -0.0469 0c-0.1561,0.0043 -0.2887,0.0639 -0.394,0.183 -0.1093,0.115 -0.1639,0.2597 -0.1679,0.43l0 16.6518z"/>
   <path id="_2629034321234567891011" class="fil9" d="M160.913 110.706c0.0507,0.1277 0.1248,0.2298 0.2263,0.2979 0.0976,0.0724 0.2029,0.1107 0.3121,0.1107 0.0352,0.0128 0.0664,0.0128 0.0976,0.0085 0.0312,-0.0042 0.0663,-0.0085 0.1132,-0.0085 0.1444,-0.0724 0.2419,-0.1873 0.3004,-0.3448 0.0585,-0.1575 0.0585,-0.315 0.0039,-0.4767l-5.6889 -16.5966c-0.039,-0.1149 -0.1093,-0.2085 -0.2107,-0.2767 -0.1015,-0.0681 -0.2185,-0.1064 -0.3512,-0.1064 -0.121,0 -0.2302,0.0383 -0.3316,0.1064 -0.1054,0.0682 -0.1795,0.1618 -0.2303,0.2767l-5.6888 16.5966c-0.0547,0.1617 -0.0508,0.3192 0.0156,0.4767 0.0624,0.1575 0.1677,0.2724 0.3121,0.3448 0.0351,-0.0128 0.0741,-0.0128 0.1132,-0.0085 0.0389,0.0042 0.0741,0.0085 0.0975,0.0085 0.121,0 0.2263,-0.0383 0.3239,-0.1107 0.0936,-0.0681 0.1677,-0.1702 0.2146,-0.2979l1.4515 -4.2141 7.4681 0 1.4515 4.2141zm-5.1739 -15.0685l3.301 9.603 -6.6253 0 3.3243 -9.603z"/>
   <path id="_262903432123456789101112" class="fil9" d="M179.524 110.502c0.0038,0.1703 0.0546,0.315 0.1599,0.43 0.1015,0.1192 0.2342,0.1787 0.4019,0.183 0.1561,-0.0043 0.2888,-0.0638 0.3941,-0.183 0.1092,-0.115 0.1639,-0.2597 0.1678,-0.43l0 -16.5497c0,-0.0511 -0.0117,-0.1064 -0.0273,-0.166 -0.0195,-0.0596 -0.0429,-0.1149 -0.0664,-0.166 -0.0233,-0.0383 -0.0468,-0.0724 -0.0741,-0.1022 -0.0234,-0.0297 -0.0547,-0.0638 -0.0898,-0.1021 -0.0858,-0.0596 -0.1833,-0.0937 -0.2848,-0.1022 -0.1014,-0.0085 -0.199,0.0085 -0.2887,0.0511 -0.0898,0.0426 -0.1639,0.1107 -0.2224,0.2043l-5.806 8.8112 -5.8293 -8.8112c-0.0976,-0.1404 -0.2225,-0.2256 -0.3707,-0.2511 -0.1483,-0.0256 -0.2927,0.0085 -0.4253,0.0979 -0.0118,0.0128 -0.0234,0.0213 -0.0312,0.0255 -0.0117,0.0043 -0.0157,0.0128 -0.0157,0.0256 -0.0702,0.051 -0.1287,0.1192 -0.1677,0.2043 -0.0429,0.0851 -0.0664,0.1788 -0.0664,0.2809l0 16.5497c0.004,0.1703 0.0624,0.315 0.1717,0.43 0.1093,0.1192 0.2459,0.1787 0.4136,0.183 0.1561,-0.0043 0.2887,-0.0638 0.3941,-0.183 0.1092,-0.115 0.1639,-0.2597 0.1678,-0.43l0 -14.6853 5.2441 7.9173c0.0585,0.1022 0.1287,0.1745 0.2107,0.2171 0.0819,0.0426 0.1756,0.0639 0.2809,0.0639l0.0469 0c0.0858,0 0.1677,-0.0213 0.2536,-0.0639 0.0819,-0.0426 0.156,-0.1149 0.2146,-0.2171l5.2441 -7.9428 0 14.7108z"/>
   <path id="_26290343212345678910111213" class="fil9" d="M187.227 108.54l0 0c0.3395,0.2938 0.7297,0.5917 1.1627,0.8939 0.4371,0.298 0.9131,0.5704 1.4282,0.8216 0.515,0.2511 1.0613,0.4554 1.6387,0.6129 0.5814,0.1533 1.1823,0.2341 1.8105,0.2469l0 0c0.8233,-0.0043 1.5919,-0.132 2.3099,-0.3788 0.714,-0.2427 1.35,-0.5875 1.9041,-1.0259l0 0c0.3706,-0.2894 0.6906,-0.6214 0.9676,-0.9918 0.2771,-0.3746 0.4917,-0.7747 0.6478,-1.2089 0.1521,-0.4341 0.2301,-0.8896 0.2341,-1.3706l0 0c-0.004,-0.4767 -0.078,-0.9194 -0.2263,-1.3366 -0.1522,-0.4129 -0.359,-0.7917 -0.6282,-1.1322 -0.2693,-0.3406 -0.5853,-0.6385 -0.9482,-0.8939l0 0c-0.5423,-0.3959 -1.1667,-0.7236 -1.8728,-0.9875 -0.7063,-0.2682 -1.4711,-0.481 -2.2943,-0.6471l-0.0469 0 0 0c-0.7414,-0.1489 -1.4085,-0.3362 -2.0016,-0.5618 -0.5932,-0.2214 -1.0965,-0.4853 -1.5101,-0.7875l0 0c-0.4097,-0.3022 -0.7101,-0.63 -0.909,-0.979 -0.1952,-0.3491 -0.3005,-0.7492 -0.3083,-1.1876l0 0c0.0038,-0.464 0.1131,-0.9024 0.3355,-1.3196 0.2225,-0.4214 0.5385,-0.796 0.9521,-1.1322l0 0c0.4136,-0.3235 0.9092,-0.5789 1.4827,-0.7747 0.5696,-0.1916 1.1939,-0.2895 1.865,-0.2937l0 0c0.601,0.0042 1.159,0.1021 1.6817,0.2852 0.519,0.183 1.0146,0.4171 1.4749,0.7023 0.4644,0.2852 0.9131,0.5874 1.3384,0.8981l0 0c0.1249,0.0894 0.2536,0.115 0.3863,0.0852 0.1365,-0.0298 0.2419,-0.1064 0.3161,-0.2384l0 0c0.0818,-0.1447 0.1092,-0.2894 0.078,-0.4342 -0.0273,-0.1447 -0.0975,-0.2639 -0.2185,-0.3575l0 0c-0.32,-0.2299 -0.6633,-0.4683 -1.0301,-0.7066 -0.3668,-0.2427 -0.757,-0.464 -1.1745,-0.6683 -0.4136,-0.2043 -0.8584,-0.3703 -1.3344,-0.498 -0.4721,-0.1235 -0.9793,-0.1873 -1.5179,-0.1916l0 0c-0.7764,0.0043 -1.4982,0.1192 -2.1693,0.3448 -0.6751,0.2256 -1.2681,0.5448 -1.7871,0.9577l0 0c-0.3473,0.2725 -0.6438,0.5832 -0.9013,0.928 -0.2536,0.3448 -0.4526,0.7193 -0.5932,1.128 -0.1404,0.4044 -0.2106,0.83 -0.2146,1.2855l0 0c0.004,0.4427 0.0742,0.8513 0.2146,1.2344 0.1406,0.3831 0.3356,0.7321 0.5853,1.0471 0.2537,0.3108 0.5463,0.5874 0.8858,0.8258l0 0c0.5073,0.3703 1.0847,0.6726 1.7402,0.9152 0.6516,0.2426 1.3578,0.4427 2.1226,0.5917l0.0468 0 0 0c0.7999,0.166 1.5178,0.3703 2.1617,0.6129 0.6399,0.2426 1.1822,0.5193 1.631,0.8386l0 0c0.4447,0.3277 0.7803,0.6938 1.0027,1.0897 0.2224,0.4001 0.3317,0.8513 0.3317,1.3578l0 0c0,0.5023 -0.1209,0.979 -0.359,1.4345 -0.238,0.4512 -0.5853,0.8598 -1.0457,1.2174l0 0c-0.4487,0.3618 -0.9832,0.647 -1.5998,0.8556 -0.6164,0.2085 -1.2876,0.315 -2.0055,0.3192l0 0c-0.5345,0.0043 -1.0574,-0.0638 -1.5685,-0.1958 -0.5112,-0.1362 -0.9989,-0.315 -1.4671,-0.5406 -0.4644,-0.2256 -0.8974,-0.4725 -1.2954,-0.7449 -0.3941,-0.2724 -0.7453,-0.5406 -1.0536,-0.813l0 0c-0.1092,-0.1022 -0.2341,-0.149 -0.3707,-0.1362 -0.1365,0.0128 -0.2574,0.0851 -0.355,0.2128l0 0c-0.0819,0.1192 -0.117,0.2554 -0.1054,0.4044 0.0117,0.149 0.0702,0.2767 0.1756,0.3873z"/>
   <path id="_2629034321234567891011121314" class="fil10" d="M240.225 128.075l0 1.4745 -7.1864 0 2.5169 -3.2615c0.1697,-0.2124 0.4116,-0.5249 0.7259,-0.9345 1.9384,-2.506 2.909,-4.2566 2.909,-5.2518 0,-0.6705 -0.2169,-1.2166 -0.6479,-1.6413 -0.4311,-0.4218 -0.9985,-0.6341 -1.6993,-0.6341 -0.7565,0 -1.335,0.2305 -1.7355,0.6887 -0.4032,0.4581 -0.6035,1.1195 -0.6035,1.9842l0 0.1517 -1.3349 0c0,-0.0425 -0.0028,-0.1001 -0.0084,-0.179 -0.0055,-0.0759 -0.0083,-0.1335 -0.0083,-0.1669 0,-1.2318 0.3282,-2.1905 0.9873,-2.8762 0.6564,-0.6826 1.5741,-1.0255 2.7533,-1.0255 1.157,0 2.0636,0.3186 2.7172,0.9557 0.6535,0.6372 0.9817,1.52 0.9817,2.6517 0,0.8192 -0.2225,1.6657 -0.6647,2.5394 -0.4422,0.8738 -1.2265,1.9812 -2.35,3.3192l-1.8745 2.2057 4.5221 0z"/>
   <path id="_262903432123456789101112131415" class="fil10" d="M247.766 129.896c-1.2877,0 -2.3,-0.6008 -3.0426,-1.7992 -0.7425,-1.2014 -1.1125,-2.8519 -1.1125,-4.9544 0,-2.0935 0.3672,-3.7379 1.1041,-4.9393 0.737,-1.1985 1.7438,-1.7992 3.0203,-1.7992 1.3016,0 2.3223,0.5916 3.0537,1.7779 0.7342,1.1863 1.1014,2.8368 1.1014,4.9606 0,2.1146 -0.3644,3.7681 -1.0958,4.9635 -0.7315,1.1924 -1.741,1.7901 -3.0286,1.7901zm-0.014 -1.2713c0.8733,0 1.538,-0.4642 1.9913,-1.3895 0.4534,-0.9284 0.6814,-2.2876 0.6814,-4.0777 0,-1.793 -0.228,-3.1583 -0.6814,-4.0928 -0.4533,-0.9314 -1.118,-1.3986 -1.9913,-1.3986 -0.8427,0 -1.499,0.4793 -1.969,1.435 -0.47,0.9588 -0.7064,2.2967 -0.7064,4.0231 0,1.7354 0.2364,3.0855 0.7064,4.0503 0.47,0.9678 1.1263,1.4502 1.969,1.4502z"/>
   <polygon id="_26290343212345678910111213141516" class="fil10" points="258.113,129.55 258.113,118.012 255.677,118.012 256.475,116.662 259.499,116.662 259.499,129.55 "/>
   <path id="_2629034321234567891011121314151617" class="fil10" d="M271.612 120.539c0,-0.8798 -0.2224,-1.5746 -0.6675,-2.0874 -0.4449,-0.5127 -1.0457,-0.7675 -1.8021,-0.7675 -0.7398,0 -1.3322,0.2609 -1.7799,0.7827 -0.4478,0.5219 -0.6731,1.2106 -0.6731,2.0722 0,0.895 0.2253,1.5989 0.6731,2.1117 0.4477,0.5127 1.0623,0.7676 1.8466,0.7676 0.7092,0 1.2905,-0.267 1.7354,-0.801 0.4451,-0.534 0.6675,-1.2257 0.6675,-2.0783zm-0.9539 3.5558c-0.292,0.2063 -0.5896,0.3611 -0.8872,0.4612 -0.3003,0.1001 -0.6146,0.1517 -0.9456,0.1517 -1.0706,0 -1.9383,-0.3732 -2.6031,-1.1165 -0.6647,-0.7433 -0.9984,-1.7112 -0.9984,-2.9035 0,-1.3137 0.3754,-2.3574 1.1236,-3.128 0.7508,-0.7707 1.7715,-1.156 3.0648,-1.156 1.0901,0 1.9718,0.3914 2.642,1.1772 0.6703,0.7858 1.0068,1.8143 1.0068,3.0886 0,1.2287 -0.7453,2.9975 -2.2388,5.3094l-0.0584 0.088 -2.7227 4.1929 -1.2377 -0.6917 3.8547 -5.4733z"/>
  </g>
 </g>
</svg>
