<svg xmlns="http://www.w3.org/2000/svg" width="1440" height="300"><path d="M712,187L594,85L601,202Z" fill="#fe913d" stroke="#fe913d" stroke-width="1.51"/><path d="M712,187L705,72L594,85Z" fill="#fe9840" stroke="#fe9840" stroke-width="1.51"/><path d="M594,85L475,187L601,202Z" fill="#fe9740" stroke="#fe9740" stroke-width="1.51"/><path d="M575,-36L477,89L594,85Z" fill="#feae4b" stroke="#feae4b" stroke-width="1.51"/><path d="M477,89L475,187L594,85Z" fill="#fea345" stroke="#fea345" stroke-width="1.51"/><path d="M601,202L712,321L712,187Z" fill="#fd7735" stroke="#fd7735" stroke-width="1.51"/><path d="M589,353L712,321L601,202Z" fill="#f97032" stroke="#f97032" stroke-width="1.51"/><path d="M705,72L575,-36L594,85Z" fill="#feaa49" stroke="#feaa49" stroke-width="1.51"/><path d="M712,187L835,79L705,72Z" fill="#fe913e" stroke="#fe913e" stroke-width="1.51"/><path d="M705,72L728,-67L575,-36Z" fill="#ffb053" stroke="#ffb053" stroke-width="1.51"/><path d="M864,227L835,79L712,187Z" fill="#fd8037" stroke="#fd8037" stroke-width="1.51"/><path d="M475,187L589,353L601,202Z" fill="#fe7e38" stroke="#fe7e38" stroke-width="1.51"/><path d="M823,-19L728,-67L705,72Z" fill="#ffa84f" stroke="#ffa84f" stroke-width="1.51"/><path d="M712,321L864,227L712,187Z" fill="#fd6b31" stroke="#fd6b31" stroke-width="1.51"/><path d="M835,79L823,-19L705,72Z" fill="#fe9a43" stroke="#fe9a43" stroke-width="1.51"/><path d="M958,-19L823,-19L835,79Z" fill="#ff9846" stroke="#ff9846" stroke-width="1.51"/><path d="M575,-36L477,-68L477,89Z" fill="#ffbb58" stroke="#ffbb58" stroke-width="1.51"/><path d="M306,209L451,370L475,187Z" fill="#ff8a3f" stroke="#ff8a3f" stroke-width="1.51"/><path d="M578,-159L477,-68L575,-36Z" fill="#ffc569" stroke="#ffc569" stroke-width="1.51"/><path d="M728,461L868,333L712,321Z" fill="#eb562b" stroke="#eb562b" stroke-width="1.51"/><path d="M712,321L868,333L864,227Z" fill="#f75b2c" stroke="#f75b2c" stroke-width="1.51"/><path d="M475,187L451,370L589,353Z" fill="#f87935" stroke="#f87935" stroke-width="1.51"/><path d="M589,353L728,461L712,321Z" fill="#eb602f" stroke="#eb602f" stroke-width="1.51"/><path d="M330,71L475,187L477,89Z" fill="#feaa4b" stroke="#feaa4b" stroke-width="1.51"/><path d="M728,-67L578,-159L575,-36Z" fill="#ffbf66" stroke="#ffbf66" stroke-width="1.51"/><path d="M702,-173L578,-159L728,-67Z" fill="#ffc16d" stroke="#ffc16d" stroke-width="1.51"/><path d="M876,-166L702,-173L728,-67Z" fill="#ffb86a" stroke="#ffb86a" stroke-width="1.51"/><path d="M348,-53L330,71L477,89Z" fill="#ffbd58" stroke="#ffbd58" stroke-width="1.51"/><path d="M972,349L972,204L864,227Z" fill="#fb502a" stroke="#fb502a" stroke-width="1.51"/><path d="M864,227L972,204L835,79Z" fill="#fd7433" stroke="#fd7433" stroke-width="1.51"/><path d="M605,481L728,461L589,353Z" fill="#e15f33" stroke="#e15f33" stroke-width="1.51"/><path d="M463,453L605,481L589,353Z" fill="#e26735" stroke="#e26735" stroke-width="1.51"/><path d="M823,-19L876,-166L728,-67Z" fill="#ffae5d" stroke="#ffae5d" stroke-width="1.51"/><path d="M998,81L958,-19L835,79Z" fill="#ff8a3d" stroke="#ff8a3d" stroke-width="1.51"/><path d="M330,71L306,209L475,187Z" fill="#ffa74d" stroke="#ffa74d" stroke-width="1.51"/><path d="M972,204L998,81L835,79Z" fill="#fe7a36" stroke="#fe7a36" stroke-width="1.51"/><path d="M477,-68L348,-53L477,89Z" fill="#ffc35e" stroke="#ffc35e" stroke-width="1.51"/><path d="M330,71L213,107L306,209Z" fill="#ffb356" stroke="#ffb356" stroke-width="1.51"/><path d="M349,-177L348,-53L477,-68Z" fill="#ffd275" stroke="#ffd275" stroke-width="1.51"/><path d="M702,-173L473,-176L578,-159Z" fill="#ffca79" stroke="#ffca79" stroke-width="1.51"/><path d="M578,-159L473,-176L477,-68Z" fill="#ffcc74" stroke="#ffcc74" stroke-width="1.51"/><path d="M451,370L463,453L589,353Z" fill="#e96e35" stroke="#e96e35" stroke-width="1.51"/><path d="M347,460L463,453L451,370Z" fill="#e3723c" stroke="#e3723c" stroke-width="1.51"/><path d="M958,-19L876,-166L823,-19Z" fill="#ffa557" stroke="#ffa557" stroke-width="1.51"/><path d="M868,333L972,349L864,227Z" fill="#f64c28" stroke="#f64c28" stroke-width="1.51"/><path d="M1130,203L1115,88L998,81Z" fill="#f86e31" stroke="#f86e31" stroke-width="1.51"/><path d="M853,477L972,349L868,333Z" fill="#e84128" stroke="#e84128" stroke-width="1.51"/><path d="M728,461L853,477L868,333Z" fill="#e14b2d" stroke="#e14b2d" stroke-width="1.51"/><path d="M830,604L853,477L728,461Z" fill="#c5462f" stroke="#c5462f" stroke-width="1.51"/><path d="M306,209L311,354L451,370Z" fill="#f9853f" stroke="#f9853f" stroke-width="1.51"/><path d="M473,-176L349,-177L477,-68Z" fill="#ffd37a" stroke="#ffd37a" stroke-width="1.51"/><path d="M199,-60L213,107L330,71Z" fill="#fec763" stroke="#fec763" stroke-width="1.51"/><path d="M199,-60L330,71L348,-53Z" fill="#ffcf6b" stroke="#ffcf6b" stroke-width="1.51"/><path d="M306,209L210,329L311,354Z" fill="#fb8e47" stroke="#fb8e47" stroke-width="1.51"/><path d="M311,354L347,460L451,370Z" fill="#ea7a3e" stroke="#ea7a3e" stroke-width="1.51"/><path d="M463,453L485,582L605,481Z" fill="#ca6338" stroke="#ca6338" stroke-width="1.51"/><path d="M208,464L347,460L311,354Z" fill="#e57e47" stroke="#e57e47" stroke-width="1.51"/><path d="M958,-19L988,-181L876,-166Z" fill="#ffa460" stroke="#ffa460" stroke-width="1.51"/><path d="M876,-166L988,-181L702,-173Z" fill="#ffb36f" stroke="#ffb36f" stroke-width="1.51"/><path d="M702,-173L988,-181L473,-176Z" fill="#ffc176" stroke="#ffc176" stroke-width="1.51"/><path d="M473,-176L201,-187L349,-177Z" fill="#ffde8b" stroke="#ffde8b" stroke-width="1.51"/><path d="M1134,-33L988,-181L958,-19Z" fill="#ff9953" stroke="#ff9953" stroke-width="1.51"/><path d="M998,81L1134,-33L958,-19Z" fill="#fd8a41" stroke="#fd8a41" stroke-width="1.51"/><path d="M1130,203L998,81L972,204Z" fill="#fa6730" stroke="#fa6730" stroke-width="1.51"/><path d="M605,481L724,616L728,461Z" fill="#c45333" stroke="#c45333" stroke-width="1.51"/><path d="M347,460L485,582L463,453Z" fill="#cd6a3d" stroke="#cd6a3d" stroke-width="1.51"/><path d="M485,582L592,613L605,481Z" fill="#bf5c37" stroke="#bf5c37" stroke-width="1.51"/><path d="M213,107L181,230L306,209Z" fill="#ffab55" stroke="#ffab55" stroke-width="1.51"/><path d="M181,230L210,329L306,209Z" fill="#ff984e" stroke="#ff984e" stroke-width="1.51"/><path d="M1126,343L972,204L972,349Z" fill="#f33e24" stroke="#f33e24" stroke-width="1.51"/><path d="M592,613L724,616L605,481Z" fill="#be5535" stroke="#be5535" stroke-width="1.51"/><path d="M1004,493L972,349L853,477Z" fill="#dd3429" stroke="#dd3429" stroke-width="1.51"/><path d="M1126,343L1130,203L972,204Z" fill="#f64426" stroke="#f64426" stroke-width="1.51"/><path d="M213,107L78,90L181,230Z" fill="#ffb860" stroke="#ffb860" stroke-width="1.51"/><path d="M349,-177L199,-60L348,-53Z" fill="#ffd97c" stroke="#ffd97c" stroke-width="1.51"/><path d="M724,616L830,604L728,461Z" fill="#bd4a31" stroke="#bd4a31" stroke-width="1.51"/><path d="M996,625L1004,493L853,477Z" fill="#be2d2a" stroke="#be2d2a" stroke-width="1.51"/><path d="M1223,-31L1134,-33L1115,88Z" fill="#f7823d" stroke="#f7823d" stroke-width="1.51"/><path d="M1115,88L1134,-33L998,81Z" fill="#f97f38" stroke="#f97f38" stroke-width="1.51"/><path d="M1082,475L1126,343L972,349Z" fill="#e12a23" stroke="#e12a23" stroke-width="1.51"/><path d="M1004,493L1082,475L972,349Z" fill="#da2a27" stroke="#da2a27" stroke-width="1.51"/><path d="M1088,582L1082,475L1004,493Z" fill="#bf2227" stroke="#bf2227" stroke-width="1.51"/><path d="M347,460L326,593L485,582Z" fill="#c06a41" stroke="#c06a41" stroke-width="1.51"/><path d="M210,329L208,464L311,354Z" fill="#ee8648" stroke="#ee8648" stroke-width="1.51"/><path d="M85,464L208,464L210,329Z" fill="#e88650" stroke="#e88650" stroke-width="1.51"/><path d="M349,-177L201,-187L199,-60Z" fill="#ffe18a" stroke="#ffe18a" stroke-width="1.51"/><path d="M199,-60L78,90L213,107Z" fill="#ffca69" stroke="#ffca69" stroke-width="1.51"/><path d="M988,-181L201,-187L473,-176Z" fill="#ffce7d" stroke="#ffce7d" stroke-width="1.51"/><path d="M227,580L326,593L347,460Z" fill="#c17147" stroke="#c17147" stroke-width="1.51"/><path d="M485,582L326,593L592,613Z" fill="#bf633b" stroke="#bf633b" stroke-width="1.51"/><path d="M85,-60L78,90L199,-60Z" fill="#ffd679" stroke="#ffd679" stroke-width="1.51"/><path d="M181,230L62,325L210,329Z" fill="#fd9651" stroke="#fd9651" stroke-width="1.51"/><path d="M988,-181L95,-193L201,-187Z" fill="#ffd785" stroke="#ffd785" stroke-width="1.51"/><path d="M1134,-33L1131,-180L988,-181Z" fill="#ff9b5d" stroke="#ff9b5d" stroke-width="1.51"/><path d="M1130,203L1228,100L1115,88Z" fill="#f4672e" stroke="#f4672e" stroke-width="1.51"/><path d="M1134,-33L1225,-178L1131,-180Z" fill="#fb965a" stroke="#fb965a" stroke-width="1.51"/><path d="M1254,225L1228,100L1130,203Z" fill="#f15629" stroke="#f15629" stroke-width="1.51"/><path d="M1222,350L1130,203L1126,343Z" fill="#ec3020" stroke="#ec3020" stroke-width="1.51"/><path d="M78,90L65,225L181,230Z" fill="#ffb160" stroke="#ffb160" stroke-width="1.51"/><path d="M830,604L996,625L853,477Z" fill="#bd372c" stroke="#bd372c" stroke-width="1.51"/><path d="M724,616L996,625L830,604Z" fill="#bd3d2e" stroke="#bd3d2e" stroke-width="1.51"/><path d="M-182,627L996,625L724,616Z" fill="#bf6039" stroke="#bf6039" stroke-width="1.51"/><path d="M78,90L-50,214L65,225Z" fill="#ffb567" stroke="#ffb567" stroke-width="1.51"/><path d="M95,-193L85,-60L199,-60Z" fill="#ffe38d" stroke="#ffe38d" stroke-width="1.51"/><path d="M1228,100L1223,-31L1115,88Z" fill="#f47633" stroke="#f47633" stroke-width="1.51"/><path d="M208,464L227,580L347,460Z" fill="#cd794a" stroke="#cd794a" stroke-width="1.51"/><path d="M85,464L227,580L208,464Z" fill="#ce7d51" stroke="#ce7d51" stroke-width="1.51"/><path d="M1082,475L1222,350L1126,343Z" fill="#dd1f20" stroke="#dd1f20" stroke-width="1.51"/><path d="M1258,475L1222,350L1082,475Z" fill="#d21322" stroke="#d21322" stroke-width="1.51"/><path d="M1228,100L1340,86L1223,-31Z" fill="#ef7334" stroke="#ef7334" stroke-width="1.51"/><path d="M1222,350L1254,225L1130,203Z" fill="#ee3522" stroke="#ee3522" stroke-width="1.51"/><path d="M65,225L62,325L181,230Z" fill="#ff9e59" stroke="#ff9e59" stroke-width="1.51"/><path d="M996,625L1088,582L1004,493Z" fill="#b92428" stroke="#b92428" stroke-width="1.51"/><path d="M201,-187L95,-193L199,-60Z" fill="#ffe692" stroke="#ffe692" stroke-width="1.51"/><path d="M1131,-180L95,-193L988,-181Z" fill="#ffc077" stroke="#ffc077" stroke-width="1.51"/><path d="M62,325L85,464L210,329Z" fill="#f28c52" stroke="#f28c52" stroke-width="1.51"/><path d="M1367,-148L1225,-178L1223,-31Z" fill="#f38f57" stroke="#f38f57" stroke-width="1.51"/><path d="M1223,-31L1225,-178L1134,-33Z" fill="#f88e4f" stroke="#f88e4f" stroke-width="1.51"/><path d="M1254,225L1340,86L1228,100Z" fill="#ec602e" stroke="#ec602e" stroke-width="1.51"/><path d="M1356,218L1340,86L1254,225Z" fill="#e8522c" stroke="#e8522c" stroke-width="1.51"/><path d="M1378,326L1356,218L1254,225Z" fill="#e53226" stroke="#e53226" stroke-width="1.51"/><path d="M1211,614L1258,475L1082,475Z" fill="#b71023" stroke="#b71023" stroke-width="1.51"/><path d="M62,325L-48,457L85,464Z" fill="#ea8c5b" stroke="#ea8c5b" stroke-width="1.51"/><path d="M65,225L-50,214L62,325Z" fill="#ffa160" stroke="#ffa160" stroke-width="1.51"/><path d="M-81,84L-50,214L78,90Z" fill="#ffc270" stroke="#ffc270" stroke-width="1.51"/><path d="M-81,84L78,90L-81,-48Z" fill="#ffd27a" stroke="#ffd27a" stroke-width="1.51"/><path d="M1378,326L1254,225L1222,350Z" fill="#e22721" stroke="#e22721" stroke-width="1.51"/><path d="M85,464L62,576L227,580Z" fill="#c27b55" stroke="#c27b55" stroke-width="1.51"/><path d="M227,580L-182,627L326,593Z" fill="#c27b55" stroke="#c27b55" stroke-width="1.51"/><path d="M326,593L-182,627L592,613Z" fill="#c1754b" stroke="#c1754b" stroke-width="1.51"/><path d="M-48,457L62,576L85,464Z" fill="#d1835c" stroke="#d1835c" stroke-width="1.51"/><path d="M-81,-48L78,90L85,-60Z" fill="#ffda80" stroke="#ffda80" stroke-width="1.51"/><path d="M1258,475L1378,326L1222,350Z" fill="#d51221" stroke="#d51221" stroke-width="1.51"/><path d="M1088,582L1211,614L1082,475Z" fill="#b41825" stroke="#b41825" stroke-width="1.51"/><path d="M996,625L1211,614L1088,582Z" fill="#b61c26" stroke="#b61c26" stroke-width="1.51"/><path d="M1510,-37L1362,-43L1340,86Z" fill="#e57942" stroke="#e57942" stroke-width="1.51"/><path d="M1340,86L1362,-43L1223,-31Z" fill="#ed7c3f" stroke="#ed7c3f" stroke-width="1.51"/><path d="M-50,214L-64,342L62,325Z" fill="#ff9d60" stroke="#ff9d60" stroke-width="1.51"/><path d="M-176,207L-64,342L-50,214Z" fill="#ffa66a" stroke="#ffa66a" stroke-width="1.51"/><path d="M1373,477L1378,326L1258,475Z" fill="#c90824" stroke="#c90824" stroke-width="1.51"/><path d="M1356,218L1517,189L1340,86Z" fill="#e1542f" stroke="#e1542f" stroke-width="1.51"/><path d="M-78,-157L-81,-48L85,-60Z" fill="#ffe896" stroke="#ffe896" stroke-width="1.51"/><path d="M-64,342L-48,457L62,325Z" fill="#f3925d" stroke="#f3925d" stroke-width="1.51"/><path d="M1362,-43L1367,-148L1223,-31Z" fill="#ee894f" stroke="#ee894f" stroke-width="1.51"/><path d="M1510,-37L1367,-148L1362,-43Z" fill="#e78651" stroke="#e78651" stroke-width="1.51"/><path d="M95,-193L-78,-157L85,-60Z" fill="#ffea9b" stroke="#ffea9b" stroke-width="1.51"/><path d="M1385,589L1373,477L1258,475Z" fill="#ae0525" stroke="#ae0525" stroke-width="1.51"/><path d="M-177,-63L-176,79L-81,-48Z" fill="#ffe191" stroke="#ffe191" stroke-width="1.51"/><path d="M-81,-48L-176,79L-81,84Z" fill="#ffd683" stroke="#ffd683" stroke-width="1.51"/><path d="M-81,84L-176,207L-50,214Z" fill="#ffbd74" stroke="#ffbd74" stroke-width="1.51"/><path d="M-64,342L-164,448L-48,457Z" fill="#ec9165" stroke="#ec9165" stroke-width="1.51"/><path d="M-176,79L-176,207L-81,84Z" fill="#ffc77c" stroke="#ffc77c" stroke-width="1.51"/><path d="M62,576L-182,627L227,580Z" fill="#c37e5c" stroke="#c37e5c" stroke-width="1.51"/><path d="M-48,457L-73,590L62,576Z" fill="#c38160" stroke="#c38160" stroke-width="1.51"/><path d="M-164,448L-73,590L-48,457Z" fill="#d28866" stroke="#d28866" stroke-width="1.51"/><path d="M-176,79L-192,359L-176,207Z" fill="#ffb376" stroke="#ffb376" stroke-width="1.51"/><path d="M-78,-157L-177,-63L-81,-48Z" fill="#ffeb9f" stroke="#ffeb9f" stroke-width="1.51"/><path d="M1211,614L1385,589L1258,475Z" fill="#ab0724" stroke="#ab0724" stroke-width="1.51"/><path d="M1373,477L1490,333L1378,326Z" fill="#cb0b23" stroke="#cb0b23" stroke-width="1.51"/><path d="M1378,326L1490,333L1356,218Z" fill="#d92525" stroke="#d92525" stroke-width="1.51"/><path d="M1484,500L1490,333L1373,477Z" fill="#be0026" stroke="#be0026" stroke-width="1.51"/><path d="M-176,207L-192,359L-64,342Z" fill="#ffa06a" stroke="#ffa06a" stroke-width="1.51"/><path d="M-203,-188L-192,359L-176,79Z" fill="#ffd084" stroke="#ffd084" stroke-width="1.51"/><path d="M1490,333L1517,189L1356,218Z" fill="#dc3029" stroke="#dc3029" stroke-width="1.51"/><path d="M-192,359L-164,448L-64,342Z" fill="#f39668" stroke="#f39668" stroke-width="1.51"/><path d="M1517,189L1521,98L1340,86Z" fill="#dd5c33" stroke="#dd5c33" stroke-width="1.51"/><path d="M1521,98L1510,-37L1340,86Z" fill="#df6d39" stroke="#df6d39" stroke-width="1.51"/><path d="M1367,-148L1502,-166L1225,-178Z" fill="#ed9062" stroke="#ed9062" stroke-width="1.51"/><path d="M1510,-37L1502,-166L1367,-148Z" fill="#e3885a" stroke="#e3885a" stroke-width="1.51"/><path d="M1601,-159L1502,-166L1510,-37Z" fill="#d8855b" stroke="#d8855b" stroke-width="1.51"/><path d="M1630,209L1521,98L1517,189Z" fill="#cf4e30" stroke="#cf4e30" stroke-width="1.51"/><path d="M1385,589L1484,500L1373,477Z" fill="#a60126" stroke="#a60126" stroke-width="1.51"/><path d="M-177,-63L-203,-188L-176,79Z" fill="#ffeb9e" stroke="#ffeb9e" stroke-width="1.51"/><path d="M-78,-157L-203,-188L-177,-63Z" fill="#fff2ac" stroke="#fff2ac" stroke-width="1.51"/><path d="M95,-193L-203,-188L-78,-157Z" fill="#fff2ae" stroke="#fff2ae" stroke-width="1.51"/><path d="M-73,590L-182,627L62,576Z" fill="#c38264" stroke="#c38264" stroke-width="1.51"/><path d="M592,613L-182,627L724,616Z" fill="#c06b41" stroke="#c06b41" stroke-width="1.51"/><path d="M-164,448L-182,627L-73,590Z" fill="#c4856a" stroke="#c4856a" stroke-width="1.51"/><path d="M-192,359L-182,627L-164,448Z" fill="#da8d6d" stroke="#da8d6d" stroke-width="1.51"/><path d="M1521,98L1622,67L1510,-37Z" fill="#d26a3b" stroke="#d26a3b" stroke-width="1.51"/><path d="M1630,209L1622,67L1521,98Z" fill="#cb5834" stroke="#cb5834" stroke-width="1.51"/><path d="M1603,354L1517,189L1490,333Z" fill="#cb2226" stroke="#cb2226" stroke-width="1.51"/><path d="M1484,500L1603,354L1490,333Z" fill="#bc0624" stroke="#bc0624" stroke-width="1.51"/><path d="M1484,500L1633,450L1603,354Z" fill="#ae0126" stroke="#ae0126" stroke-width="1.51"/><path d="M1385,589L1505,623L1484,500Z" fill="#9d0026" stroke="#9d0026" stroke-width="1.51"/><path d="M1211,614L1505,623L1385,589Z" fill="#a40325" stroke="#a40325" stroke-width="1.51"/><path d="M996,625L1505,623L1211,614Z" fill="#ae0924" stroke="#ae0924" stroke-width="1.51"/><path d="M1603,354L1630,209L1517,189Z" fill="#ca2d29" stroke="#ca2d29" stroke-width="1.51"/><path d="M1636,-54L1601,-159L1510,-37Z" fill="#d17f53" stroke="#d17f53" stroke-width="1.51"/><path d="M1622,67L1636,-54L1510,-37Z" fill="#ce7345" stroke="#ce7345" stroke-width="1.51"/><path d="M1630,209L1636,-54L1622,67Z" fill="#c76138" stroke="#c76138" stroke-width="1.51"/><path d="M1603,354L1633,450L1630,209Z" fill="#ba0f23" stroke="#ba0f23" stroke-width="1.51"/><path d="M1630,209L1633,450L1636,-54Z" fill="#c43f2d" stroke="#c43f2d" stroke-width="1.51"/><path d="M1629,590L1633,450L1484,500Z" fill="#950026" stroke="#950026" stroke-width="1.51"/><path d="M1505,623L1629,590L1484,500Z" fill="#930026" stroke="#930026" stroke-width="1.51"/></svg>